%TF.GenerationSoftware,KiCad,Pcbnew,7.0.1*%
%TF.CreationDate,2023-04-08T16:50:17+02:00*%
%TF.ProjectId,PCB_hello_world,5043425f-6865-46c6-9c6f-5f776f726c64,rev?*%
%TF.SameCoordinates,Original*%
%TF.FileFunction,Copper,L2,Bot*%
%TF.FilePolarity,Positive*%
%FSLAX46Y46*%
G04 Gerber Fmt 4.6, Leading zero omitted, Abs format (unit mm)*
G04 Created by KiCad (PCBNEW 7.0.1) date 2023-04-08 16:50:17*
%MOMM*%
%LPD*%
G01*
G04 APERTURE LIST*
%TA.AperFunction,ComponentPad*%
%ADD10C,1.400000*%
%TD*%
%TA.AperFunction,ComponentPad*%
%ADD11O,1.400000X1.400000*%
%TD*%
%TA.AperFunction,ComponentPad*%
%ADD12R,1.800000X1.800000*%
%TD*%
%TA.AperFunction,ComponentPad*%
%ADD13C,1.800000*%
%TD*%
%TA.AperFunction,ComponentPad*%
%ADD14C,2.600000*%
%TD*%
%TA.AperFunction,ConnectorPad*%
%ADD15C,3.800000*%
%TD*%
%TA.AperFunction,ComponentPad*%
%ADD16R,1.500000X1.050000*%
%TD*%
%TA.AperFunction,ComponentPad*%
%ADD17O,1.500000X1.050000*%
%TD*%
%TA.AperFunction,ComponentPad*%
%ADD18R,1.700000X1.700000*%
%TD*%
%TA.AperFunction,ComponentPad*%
%ADD19O,1.700000X1.700000*%
%TD*%
%TA.AperFunction,Conductor*%
%ADD20C,0.250000*%
%TD*%
G04 APERTURE END LIST*
D10*
%TO.P,R4,1*%
%TO.N,/SIG_5*%
X149860000Y-116205000D03*
D11*
%TO.P,R4,2*%
%TO.N,Net-(Q1-G)*%
X149860000Y-111125000D03*
%TD*%
D12*
%TO.P,D3,1,K*%
%TO.N,Net-(D1-K)*%
X156215000Y-103535000D03*
D13*
%TO.P,D3,2,A*%
%TO.N,Net-(D3-A)*%
X153675000Y-103535000D03*
%TD*%
D14*
%TO.P,H1,1*%
%TO.N,N/C*%
X139065000Y-122555000D03*
D15*
X139065000Y-122555000D03*
%TD*%
D10*
%TO.P,R2,1*%
%TO.N,/5V*%
X142240000Y-116205000D03*
D11*
%TO.P,R2,2*%
%TO.N,Net-(D2-A)*%
X142240000Y-111125000D03*
%TD*%
D16*
%TO.P,Q1,1,S*%
%TO.N,/GND*%
X155215000Y-112395000D03*
D17*
%TO.P,Q1,2,G*%
%TO.N,Net-(Q1-G)*%
X155215000Y-113665000D03*
%TO.P,Q1,3,D*%
%TO.N,Net-(D1-K)*%
X155215000Y-114935000D03*
%TD*%
D18*
%TO.P,J1,1,Pin_1*%
%TO.N,/SIG_5*%
X150480000Y-121990000D03*
D19*
%TO.P,J1,2,Pin_2*%
%TO.N,/GND*%
X147940000Y-121990000D03*
%TO.P,J1,3,Pin_3*%
%TO.N,/5V*%
X145400000Y-121990000D03*
%TD*%
D10*
%TO.P,R3,1*%
%TO.N,/5V*%
X145775000Y-116205000D03*
D11*
%TO.P,R3,2*%
%TO.N,Net-(D3-A)*%
X145775000Y-111125000D03*
%TD*%
D10*
%TO.P,R1,1*%
%TO.N,/5V*%
X138430000Y-116205000D03*
D11*
%TO.P,R1,2*%
%TO.N,Net-(D1-A)*%
X138430000Y-111125000D03*
%TD*%
D12*
%TO.P,D1,1,K*%
%TO.N,Net-(D1-K)*%
X140975000Y-103535000D03*
D13*
%TO.P,D1,2,A*%
%TO.N,Net-(D1-A)*%
X138435000Y-103535000D03*
%TD*%
D12*
%TO.P,D2,1,K*%
%TO.N,Net-(D1-K)*%
X148595000Y-103535000D03*
D13*
%TO.P,D2,2,A*%
%TO.N,Net-(D2-A)*%
X146055000Y-103535000D03*
%TD*%
D14*
%TO.P,H2,1*%
%TO.N,N/C*%
X156210000Y-122555000D03*
D15*
X156210000Y-122555000D03*
%TD*%
D20*
%TO.N,Net-(D1-K)*%
X147370000Y-104760000D02*
X148595000Y-103535000D01*
X142200000Y-104760000D02*
X147370000Y-104760000D01*
X148595000Y-103535000D02*
X150470000Y-105410000D01*
X154340000Y-105410000D02*
X156215000Y-103535000D01*
X140975000Y-103535000D02*
X142200000Y-104760000D01*
X150470000Y-105410000D02*
X154340000Y-105410000D01*
%TO.N,/GND*%
X152855431Y-111760000D02*
X155215000Y-111760000D01*
X147940000Y-116675431D02*
X152855431Y-111760000D01*
X147940000Y-121990000D02*
X147940000Y-116675431D01*
%TD*%
M02*
