%TF.GenerationSoftware,KiCad,Pcbnew,7.0.1*%
%TF.CreationDate,2023-04-08T16:50:17+02:00*%
%TF.ProjectId,PCB_hello_world,5043425f-6865-46c6-9c6f-5f776f726c64,rev?*%
%TF.SameCoordinates,Original*%
%TF.FileFunction,Legend,Bot*%
%TF.FilePolarity,Positive*%
%FSLAX46Y46*%
G04 Gerber Fmt 4.6, Leading zero omitted, Abs format (unit mm)*
G04 Created by KiCad (PCBNEW 7.0.1) date 2023-04-08 16:50:17*
%MOMM*%
%LPD*%
G01*
G04 APERTURE LIST*
%ADD10C,0.150000*%
G04 APERTURE END LIST*
D10*
%TO.C,R4*%
X150026666Y-114127619D02*
X150359999Y-113651428D01*
X150598094Y-114127619D02*
X150598094Y-113127619D01*
X150598094Y-113127619D02*
X150217142Y-113127619D01*
X150217142Y-113127619D02*
X150121904Y-113175238D01*
X150121904Y-113175238D02*
X150074285Y-113222857D01*
X150074285Y-113222857D02*
X150026666Y-113318095D01*
X150026666Y-113318095D02*
X150026666Y-113460952D01*
X150026666Y-113460952D02*
X150074285Y-113556190D01*
X150074285Y-113556190D02*
X150121904Y-113603809D01*
X150121904Y-113603809D02*
X150217142Y-113651428D01*
X150217142Y-113651428D02*
X150598094Y-113651428D01*
X149169523Y-113460952D02*
X149169523Y-114127619D01*
X149407618Y-113080000D02*
X149645713Y-113794285D01*
X149645713Y-113794285D02*
X149026666Y-113794285D01*
%TO.C,D3*%
X155043094Y-107777619D02*
X155043094Y-106777619D01*
X155043094Y-106777619D02*
X154804999Y-106777619D01*
X154804999Y-106777619D02*
X154662142Y-106825238D01*
X154662142Y-106825238D02*
X154566904Y-106920476D01*
X154566904Y-106920476D02*
X154519285Y-107015714D01*
X154519285Y-107015714D02*
X154471666Y-107206190D01*
X154471666Y-107206190D02*
X154471666Y-107349047D01*
X154471666Y-107349047D02*
X154519285Y-107539523D01*
X154519285Y-107539523D02*
X154566904Y-107634761D01*
X154566904Y-107634761D02*
X154662142Y-107730000D01*
X154662142Y-107730000D02*
X154804999Y-107777619D01*
X154804999Y-107777619D02*
X155043094Y-107777619D01*
X154138332Y-106777619D02*
X153519285Y-106777619D01*
X153519285Y-106777619D02*
X153852618Y-107158571D01*
X153852618Y-107158571D02*
X153709761Y-107158571D01*
X153709761Y-107158571D02*
X153614523Y-107206190D01*
X153614523Y-107206190D02*
X153566904Y-107253809D01*
X153566904Y-107253809D02*
X153519285Y-107349047D01*
X153519285Y-107349047D02*
X153519285Y-107587142D01*
X153519285Y-107587142D02*
X153566904Y-107682380D01*
X153566904Y-107682380D02*
X153614523Y-107730000D01*
X153614523Y-107730000D02*
X153709761Y-107777619D01*
X153709761Y-107777619D02*
X153995475Y-107777619D01*
X153995475Y-107777619D02*
X154090713Y-107730000D01*
X154090713Y-107730000D02*
X154138332Y-107682380D01*
%TO.C,R2*%
X142406666Y-114127619D02*
X142739999Y-113651428D01*
X142978094Y-114127619D02*
X142978094Y-113127619D01*
X142978094Y-113127619D02*
X142597142Y-113127619D01*
X142597142Y-113127619D02*
X142501904Y-113175238D01*
X142501904Y-113175238D02*
X142454285Y-113222857D01*
X142454285Y-113222857D02*
X142406666Y-113318095D01*
X142406666Y-113318095D02*
X142406666Y-113460952D01*
X142406666Y-113460952D02*
X142454285Y-113556190D01*
X142454285Y-113556190D02*
X142501904Y-113603809D01*
X142501904Y-113603809D02*
X142597142Y-113651428D01*
X142597142Y-113651428D02*
X142978094Y-113651428D01*
X142025713Y-113222857D02*
X141978094Y-113175238D01*
X141978094Y-113175238D02*
X141882856Y-113127619D01*
X141882856Y-113127619D02*
X141644761Y-113127619D01*
X141644761Y-113127619D02*
X141549523Y-113175238D01*
X141549523Y-113175238D02*
X141501904Y-113222857D01*
X141501904Y-113222857D02*
X141454285Y-113318095D01*
X141454285Y-113318095D02*
X141454285Y-113413333D01*
X141454285Y-113413333D02*
X141501904Y-113556190D01*
X141501904Y-113556190D02*
X142073332Y-114127619D01*
X142073332Y-114127619D02*
X141454285Y-114127619D01*
%TO.C,Q1*%
X157575238Y-114222857D02*
X157670476Y-114175238D01*
X157670476Y-114175238D02*
X157765714Y-114080000D01*
X157765714Y-114080000D02*
X157908571Y-113937142D01*
X157908571Y-113937142D02*
X158003809Y-113889523D01*
X158003809Y-113889523D02*
X158099047Y-113889523D01*
X158051428Y-114127619D02*
X158146666Y-114080000D01*
X158146666Y-114080000D02*
X158241904Y-113984761D01*
X158241904Y-113984761D02*
X158289523Y-113794285D01*
X158289523Y-113794285D02*
X158289523Y-113460952D01*
X158289523Y-113460952D02*
X158241904Y-113270476D01*
X158241904Y-113270476D02*
X158146666Y-113175238D01*
X158146666Y-113175238D02*
X158051428Y-113127619D01*
X158051428Y-113127619D02*
X157860952Y-113127619D01*
X157860952Y-113127619D02*
X157765714Y-113175238D01*
X157765714Y-113175238D02*
X157670476Y-113270476D01*
X157670476Y-113270476D02*
X157622857Y-113460952D01*
X157622857Y-113460952D02*
X157622857Y-113794285D01*
X157622857Y-113794285D02*
X157670476Y-113984761D01*
X157670476Y-113984761D02*
X157765714Y-114080000D01*
X157765714Y-114080000D02*
X157860952Y-114127619D01*
X157860952Y-114127619D02*
X158051428Y-114127619D01*
X156670476Y-114127619D02*
X157241904Y-114127619D01*
X156956190Y-114127619D02*
X156956190Y-113127619D01*
X156956190Y-113127619D02*
X157051428Y-113270476D01*
X157051428Y-113270476D02*
X157146666Y-113365714D01*
X157146666Y-113365714D02*
X157241904Y-113413333D01*
%TO.C,R3*%
X145581666Y-114127619D02*
X145914999Y-113651428D01*
X146153094Y-114127619D02*
X146153094Y-113127619D01*
X146153094Y-113127619D02*
X145772142Y-113127619D01*
X145772142Y-113127619D02*
X145676904Y-113175238D01*
X145676904Y-113175238D02*
X145629285Y-113222857D01*
X145629285Y-113222857D02*
X145581666Y-113318095D01*
X145581666Y-113318095D02*
X145581666Y-113460952D01*
X145581666Y-113460952D02*
X145629285Y-113556190D01*
X145629285Y-113556190D02*
X145676904Y-113603809D01*
X145676904Y-113603809D02*
X145772142Y-113651428D01*
X145772142Y-113651428D02*
X146153094Y-113651428D01*
X145248332Y-113127619D02*
X144629285Y-113127619D01*
X144629285Y-113127619D02*
X144962618Y-113508571D01*
X144962618Y-113508571D02*
X144819761Y-113508571D01*
X144819761Y-113508571D02*
X144724523Y-113556190D01*
X144724523Y-113556190D02*
X144676904Y-113603809D01*
X144676904Y-113603809D02*
X144629285Y-113699047D01*
X144629285Y-113699047D02*
X144629285Y-113937142D01*
X144629285Y-113937142D02*
X144676904Y-114032380D01*
X144676904Y-114032380D02*
X144724523Y-114080000D01*
X144724523Y-114080000D02*
X144819761Y-114127619D01*
X144819761Y-114127619D02*
X145105475Y-114127619D01*
X145105475Y-114127619D02*
X145200713Y-114080000D01*
X145200713Y-114080000D02*
X145248332Y-114032380D01*
%TO.C,R1*%
X138596666Y-114127619D02*
X138929999Y-113651428D01*
X139168094Y-114127619D02*
X139168094Y-113127619D01*
X139168094Y-113127619D02*
X138787142Y-113127619D01*
X138787142Y-113127619D02*
X138691904Y-113175238D01*
X138691904Y-113175238D02*
X138644285Y-113222857D01*
X138644285Y-113222857D02*
X138596666Y-113318095D01*
X138596666Y-113318095D02*
X138596666Y-113460952D01*
X138596666Y-113460952D02*
X138644285Y-113556190D01*
X138644285Y-113556190D02*
X138691904Y-113603809D01*
X138691904Y-113603809D02*
X138787142Y-113651428D01*
X138787142Y-113651428D02*
X139168094Y-113651428D01*
X137644285Y-114127619D02*
X138215713Y-114127619D01*
X137929999Y-114127619D02*
X137929999Y-113127619D01*
X137929999Y-113127619D02*
X138025237Y-113270476D01*
X138025237Y-113270476D02*
X138120475Y-113365714D01*
X138120475Y-113365714D02*
X138215713Y-113413333D01*
%TO.C,D1*%
X139803094Y-107777619D02*
X139803094Y-106777619D01*
X139803094Y-106777619D02*
X139564999Y-106777619D01*
X139564999Y-106777619D02*
X139422142Y-106825238D01*
X139422142Y-106825238D02*
X139326904Y-106920476D01*
X139326904Y-106920476D02*
X139279285Y-107015714D01*
X139279285Y-107015714D02*
X139231666Y-107206190D01*
X139231666Y-107206190D02*
X139231666Y-107349047D01*
X139231666Y-107349047D02*
X139279285Y-107539523D01*
X139279285Y-107539523D02*
X139326904Y-107634761D01*
X139326904Y-107634761D02*
X139422142Y-107730000D01*
X139422142Y-107730000D02*
X139564999Y-107777619D01*
X139564999Y-107777619D02*
X139803094Y-107777619D01*
X138279285Y-107777619D02*
X138850713Y-107777619D01*
X138564999Y-107777619D02*
X138564999Y-106777619D01*
X138564999Y-106777619D02*
X138660237Y-106920476D01*
X138660237Y-106920476D02*
X138755475Y-107015714D01*
X138755475Y-107015714D02*
X138850713Y-107063333D01*
%TO.C,D2*%
X147423094Y-107777619D02*
X147423094Y-106777619D01*
X147423094Y-106777619D02*
X147184999Y-106777619D01*
X147184999Y-106777619D02*
X147042142Y-106825238D01*
X147042142Y-106825238D02*
X146946904Y-106920476D01*
X146946904Y-106920476D02*
X146899285Y-107015714D01*
X146899285Y-107015714D02*
X146851666Y-107206190D01*
X146851666Y-107206190D02*
X146851666Y-107349047D01*
X146851666Y-107349047D02*
X146899285Y-107539523D01*
X146899285Y-107539523D02*
X146946904Y-107634761D01*
X146946904Y-107634761D02*
X147042142Y-107730000D01*
X147042142Y-107730000D02*
X147184999Y-107777619D01*
X147184999Y-107777619D02*
X147423094Y-107777619D01*
X146470713Y-106872857D02*
X146423094Y-106825238D01*
X146423094Y-106825238D02*
X146327856Y-106777619D01*
X146327856Y-106777619D02*
X146089761Y-106777619D01*
X146089761Y-106777619D02*
X145994523Y-106825238D01*
X145994523Y-106825238D02*
X145946904Y-106872857D01*
X145946904Y-106872857D02*
X145899285Y-106968095D01*
X145899285Y-106968095D02*
X145899285Y-107063333D01*
X145899285Y-107063333D02*
X145946904Y-107206190D01*
X145946904Y-107206190D02*
X146518332Y-107777619D01*
X146518332Y-107777619D02*
X145899285Y-107777619D01*
%TD*%
M02*
