M48
; DRILL file {KiCad 7.0.1} date Sun Apr  9 02:19:34 2023
; FORMAT={-:-/ absolute / inch / decimal}
; #@! TF.CreationDate,2023-04-09T02:19:34+02:00
; #@! TF.GenerationSoftware,Kicad,Pcbnew,7.0.1
; #@! TF.FileFunction,Plated,1,2,PTH
FMAT,2
INCH
; #@! TA.AperFunction,Plated,PTH,ComponentDrill
T1C0.0295
; #@! TA.AperFunction,Plated,PTH,ComponentDrill
T2C0.0315
; #@! TA.AperFunction,Plated,PTH,ComponentDrill
T3C0.0354
; #@! TA.AperFunction,Plated,PTH,ComponentDrill
T4C0.0394
; #@! TA.AperFunction,Plated,PTH,ComponentDrill
T5C0.0866
%
G90
G05
T1
X6.1108Y-4.425
X6.1108Y-4.475
X6.1108Y-4.525
T2
X5.45Y-4.275
X5.45Y-4.575
X5.6Y-4.275
X5.6Y-4.575
X5.7392Y-4.275
X5.7392Y-4.575
X5.9Y-4.275
X5.9Y-4.575
T3
X5.4502Y-4.0762
X5.5502Y-4.0762
X5.7502Y-4.0762
X5.8502Y-4.0762
X6.0502Y-4.0762
X6.1502Y-4.0762
T4
X5.7244Y-4.8028
X5.8244Y-4.8028
X5.9244Y-4.8028
T5
X5.425Y-4.85
X6.175Y-4.85
T0
M30
