%TF.GenerationSoftware,KiCad,Pcbnew,7.0.1*%
%TF.CreationDate,2023-04-09T02:19:27+02:00*%
%TF.ProjectId,PCB_hello_world,5043425f-6865-46c6-9c6f-5f776f726c64,rev?*%
%TF.SameCoordinates,Original*%
%TF.FileFunction,Legend,Top*%
%TF.FilePolarity,Positive*%
%FSLAX46Y46*%
G04 Gerber Fmt 4.6, Leading zero omitted, Abs format (unit mm)*
G04 Created by KiCad (PCBNEW 7.0.1) date 2023-04-09 02:19:27*
%MOMM*%
%LPD*%
G01*
G04 APERTURE LIST*
%ADD10C,0.200000*%
%ADD11C,0.150000*%
%ADD12C,0.120000*%
G04 APERTURE END LIST*
D10*
G36*
X138076612Y-119004804D02*
G01*
X138076612Y-119235369D01*
X138430519Y-119235369D01*
X138430519Y-119387777D01*
X138076612Y-119387777D01*
X138076612Y-119845000D01*
X137898070Y-119845000D01*
X137898070Y-118844581D01*
X138560945Y-118844581D01*
X138560945Y-119004804D01*
X138076612Y-119004804D01*
G37*
G36*
X138966311Y-119094780D02*
G01*
X138976125Y-119095065D01*
X138995384Y-119096204D01*
X139014151Y-119098103D01*
X139032425Y-119100761D01*
X139050207Y-119104179D01*
X139067497Y-119108355D01*
X139084295Y-119113292D01*
X139100600Y-119118988D01*
X139116412Y-119125443D01*
X139131733Y-119132658D01*
X139146561Y-119140632D01*
X139160897Y-119149365D01*
X139174741Y-119158858D01*
X139188092Y-119169111D01*
X139200951Y-119180123D01*
X139213318Y-119191894D01*
X139225059Y-119204252D01*
X139236044Y-119217024D01*
X139246270Y-119230211D01*
X139255740Y-119243811D01*
X139264451Y-119257825D01*
X139272405Y-119272254D01*
X139279602Y-119287096D01*
X139286041Y-119302353D01*
X139291723Y-119318024D01*
X139296647Y-119334108D01*
X139300813Y-119350607D01*
X139304222Y-119367520D01*
X139306873Y-119384847D01*
X139308767Y-119402588D01*
X139309903Y-119420743D01*
X139310282Y-119439312D01*
X139309924Y-119450186D01*
X139309123Y-119460036D01*
X139307864Y-119470909D01*
X139306146Y-119482804D01*
X139303971Y-119495722D01*
X139302039Y-119506082D01*
X139299849Y-119517017D01*
X139297402Y-119528528D01*
X139295628Y-119536521D01*
X138770261Y-119536521D01*
X138771069Y-119546998D01*
X138772272Y-119557182D01*
X138773870Y-119567072D01*
X138775864Y-119576668D01*
X138779594Y-119590511D01*
X138784213Y-119603693D01*
X138789720Y-119616214D01*
X138796117Y-119628074D01*
X138803402Y-119639272D01*
X138811575Y-119649809D01*
X138820638Y-119659685D01*
X138830589Y-119668900D01*
X138841370Y-119677325D01*
X138852829Y-119684920D01*
X138864966Y-119691687D01*
X138877781Y-119697626D01*
X138891275Y-119702735D01*
X138900648Y-119705682D01*
X138910323Y-119708260D01*
X138920298Y-119710469D01*
X138930576Y-119712311D01*
X138941154Y-119713784D01*
X138952035Y-119714888D01*
X138963216Y-119715625D01*
X138974700Y-119715993D01*
X138980554Y-119716039D01*
X138994990Y-119715801D01*
X139008989Y-119715085D01*
X139022552Y-119713893D01*
X139035677Y-119712223D01*
X139048365Y-119710076D01*
X139060616Y-119707453D01*
X139072431Y-119704352D01*
X139083808Y-119700774D01*
X139094748Y-119696719D01*
X139105252Y-119692187D01*
X139115318Y-119687179D01*
X139124948Y-119681693D01*
X139134140Y-119675730D01*
X139142896Y-119669290D01*
X139151214Y-119662373D01*
X139159096Y-119654979D01*
X139225774Y-119787114D01*
X139214069Y-119796016D01*
X139201667Y-119804345D01*
X139188568Y-119812098D01*
X139174773Y-119819278D01*
X139160282Y-119825883D01*
X139145094Y-119831913D01*
X139129209Y-119837370D01*
X139112629Y-119842252D01*
X139095351Y-119846559D01*
X139077377Y-119850293D01*
X139058707Y-119853452D01*
X139039340Y-119856036D01*
X139029396Y-119857113D01*
X139019277Y-119858046D01*
X139008984Y-119858836D01*
X138998518Y-119859482D01*
X138987877Y-119859985D01*
X138977061Y-119860344D01*
X138966072Y-119860559D01*
X138954909Y-119860631D01*
X138944460Y-119860534D01*
X138934148Y-119860245D01*
X138923974Y-119859762D01*
X138913937Y-119859085D01*
X138904038Y-119858216D01*
X138894275Y-119857153D01*
X138875163Y-119854449D01*
X138856601Y-119850971D01*
X138838588Y-119846721D01*
X138821125Y-119841697D01*
X138804211Y-119835901D01*
X138787847Y-119829333D01*
X138772032Y-119821991D01*
X138756767Y-119813877D01*
X138742051Y-119804989D01*
X138727885Y-119795329D01*
X138714269Y-119784897D01*
X138701202Y-119773691D01*
X138688684Y-119761713D01*
X138676854Y-119749042D01*
X138665786Y-119735758D01*
X138655482Y-119721862D01*
X138645942Y-119707353D01*
X138637164Y-119692232D01*
X138629150Y-119676499D01*
X138621899Y-119660153D01*
X138615411Y-119643194D01*
X138609687Y-119625623D01*
X138604726Y-119607439D01*
X138600528Y-119588643D01*
X138598715Y-119579015D01*
X138597093Y-119569234D01*
X138595662Y-119559300D01*
X138594422Y-119549213D01*
X138593372Y-119538973D01*
X138592513Y-119528579D01*
X138591846Y-119518033D01*
X138591369Y-119507333D01*
X138591082Y-119496480D01*
X138590987Y-119485474D01*
X138591092Y-119474639D01*
X138591407Y-119463934D01*
X138591931Y-119453358D01*
X138592666Y-119442911D01*
X138593611Y-119432593D01*
X138594765Y-119422405D01*
X138596129Y-119412346D01*
X138596927Y-119407316D01*
X138776367Y-119407316D01*
X139137847Y-119407316D01*
X139136578Y-119396978D01*
X139135030Y-119386968D01*
X139133204Y-119377286D01*
X139128716Y-119358907D01*
X139123114Y-119341840D01*
X139116397Y-119326086D01*
X139108566Y-119311646D01*
X139099621Y-119298518D01*
X139089561Y-119286702D01*
X139078387Y-119276200D01*
X139066098Y-119267010D01*
X139052696Y-119259133D01*
X139038178Y-119252569D01*
X139022547Y-119247318D01*
X139005801Y-119243380D01*
X138987941Y-119240754D01*
X138968966Y-119239441D01*
X138959061Y-119239277D01*
X138941117Y-119239934D01*
X138924043Y-119241903D01*
X138907839Y-119245185D01*
X138892505Y-119249780D01*
X138878041Y-119255687D01*
X138864447Y-119262908D01*
X138851724Y-119271441D01*
X138839870Y-119281287D01*
X138828887Y-119292446D01*
X138818774Y-119304918D01*
X138809531Y-119318702D01*
X138801158Y-119333799D01*
X138793655Y-119350209D01*
X138787022Y-119367932D01*
X138784032Y-119377286D01*
X138781260Y-119386968D01*
X138778705Y-119396978D01*
X138776367Y-119407316D01*
X138596927Y-119407316D01*
X138597704Y-119402416D01*
X138599488Y-119392616D01*
X138601482Y-119382945D01*
X138603686Y-119373403D01*
X138608723Y-119354707D01*
X138614600Y-119336528D01*
X138621317Y-119318866D01*
X138628873Y-119301721D01*
X138637269Y-119285094D01*
X138646504Y-119268983D01*
X138656580Y-119253390D01*
X138667494Y-119238313D01*
X138679248Y-119223754D01*
X138691842Y-119209712D01*
X138698454Y-119202885D01*
X138712055Y-119189783D01*
X138725992Y-119177526D01*
X138740265Y-119166114D01*
X138754874Y-119155548D01*
X138769818Y-119145827D01*
X138785099Y-119136951D01*
X138800715Y-119128920D01*
X138816667Y-119121735D01*
X138832955Y-119115396D01*
X138849579Y-119109901D01*
X138866539Y-119105252D01*
X138883834Y-119101448D01*
X138901465Y-119098489D01*
X138919433Y-119096376D01*
X138937735Y-119095108D01*
X138956374Y-119094685D01*
X138966311Y-119094780D01*
G37*
G36*
X139868377Y-119269563D02*
G01*
X139859644Y-119264151D01*
X139850757Y-119259271D01*
X139841715Y-119254923D01*
X139832519Y-119251108D01*
X139823168Y-119247825D01*
X139813663Y-119245074D01*
X139804003Y-119242856D01*
X139794188Y-119241170D01*
X139784219Y-119240017D01*
X139774095Y-119239396D01*
X139767260Y-119239277D01*
X139756202Y-119239754D01*
X139745376Y-119241183D01*
X139734781Y-119243566D01*
X139724419Y-119246902D01*
X139714288Y-119251191D01*
X139704389Y-119256433D01*
X139694722Y-119262629D01*
X139685286Y-119269777D01*
X139676083Y-119277879D01*
X139667111Y-119286933D01*
X139661259Y-119293499D01*
X139652966Y-119303878D01*
X139645488Y-119314682D01*
X139638826Y-119325912D01*
X139632980Y-119337566D01*
X139627950Y-119349645D01*
X139623735Y-119362150D01*
X139620336Y-119375079D01*
X139617753Y-119388433D01*
X139615986Y-119402213D01*
X139615034Y-119416417D01*
X139614853Y-119426123D01*
X139614853Y-119845000D01*
X139443150Y-119845000D01*
X139443150Y-119110317D01*
X139614853Y-119110317D01*
X139614853Y-119175774D01*
X139624045Y-119165955D01*
X139633610Y-119156769D01*
X139643547Y-119148217D01*
X139653855Y-119140298D01*
X139664536Y-119133013D01*
X139675589Y-119126361D01*
X139687014Y-119120342D01*
X139698811Y-119114958D01*
X139710981Y-119110206D01*
X139723522Y-119106089D01*
X139736435Y-119102604D01*
X139749721Y-119099754D01*
X139763378Y-119097536D01*
X139777408Y-119095952D01*
X139791810Y-119095002D01*
X139806584Y-119094685D01*
X139817413Y-119094789D01*
X139827920Y-119095101D01*
X139838105Y-119095621D01*
X139847967Y-119096349D01*
X139862156Y-119097831D01*
X139875619Y-119099781D01*
X139888357Y-119102199D01*
X139900369Y-119105085D01*
X139911655Y-119108439D01*
X139922216Y-119112260D01*
X139932052Y-119116550D01*
X139941161Y-119121308D01*
X139868377Y-119269563D01*
G37*
G36*
X140633834Y-119155746D02*
G01*
X140552013Y-119220471D01*
X140559651Y-119232579D01*
X140566539Y-119245091D01*
X140572674Y-119258007D01*
X140578059Y-119271326D01*
X140582692Y-119285049D01*
X140586574Y-119299176D01*
X140588745Y-119308818D01*
X140590581Y-119318639D01*
X140592084Y-119328640D01*
X140593253Y-119338820D01*
X140594087Y-119349179D01*
X140594588Y-119359718D01*
X140594755Y-119370436D01*
X140594456Y-119385690D01*
X140593557Y-119400558D01*
X140592059Y-119415038D01*
X140589962Y-119429130D01*
X140587266Y-119442836D01*
X140583970Y-119456153D01*
X140580076Y-119469084D01*
X140575582Y-119481627D01*
X140570489Y-119493783D01*
X140564797Y-119505552D01*
X140558506Y-119516933D01*
X140551616Y-119527926D01*
X140544126Y-119538533D01*
X140536038Y-119548752D01*
X140527350Y-119558584D01*
X140518063Y-119568028D01*
X140508320Y-119576960D01*
X140498264Y-119585316D01*
X140487895Y-119593095D01*
X140477213Y-119600299D01*
X140466219Y-119606926D01*
X140454911Y-119612976D01*
X140443290Y-119618451D01*
X140431357Y-119623349D01*
X140419110Y-119627671D01*
X140406551Y-119631417D01*
X140393679Y-119634586D01*
X140380493Y-119637179D01*
X140366995Y-119639196D01*
X140353184Y-119640637D01*
X140339060Y-119641501D01*
X140324623Y-119641789D01*
X140314578Y-119641576D01*
X140304537Y-119641038D01*
X140293327Y-119640173D01*
X140282788Y-119639171D01*
X140275286Y-119638370D01*
X140246953Y-119634462D01*
X140236592Y-119637575D01*
X140226151Y-119641780D01*
X140216076Y-119646097D01*
X140210317Y-119648628D01*
X140201099Y-119653079D01*
X140192101Y-119658483D01*
X140184445Y-119664874D01*
X140179102Y-119673229D01*
X140178321Y-119677937D01*
X140180589Y-119688216D01*
X140187391Y-119695969D01*
X140196830Y-119700606D01*
X140207242Y-119703053D01*
X140217236Y-119704084D01*
X140225704Y-119704316D01*
X140236380Y-119703942D01*
X140247726Y-119703026D01*
X140258729Y-119701843D01*
X140268544Y-119700621D01*
X140279260Y-119699156D01*
X140290877Y-119697446D01*
X140297023Y-119696500D01*
X140309373Y-119694668D01*
X140321264Y-119693080D01*
X140332698Y-119691737D01*
X140343674Y-119690638D01*
X140354191Y-119689783D01*
X140364251Y-119689173D01*
X140376182Y-119688753D01*
X140382997Y-119688684D01*
X140398429Y-119688880D01*
X140413372Y-119689466D01*
X140427824Y-119690444D01*
X140441787Y-119691813D01*
X140455259Y-119693574D01*
X140468242Y-119695725D01*
X140480735Y-119698268D01*
X140492738Y-119701202D01*
X140504251Y-119704526D01*
X140515274Y-119708243D01*
X140525807Y-119712350D01*
X140535851Y-119716848D01*
X140545404Y-119721738D01*
X140554468Y-119727019D01*
X140563041Y-119732691D01*
X140571125Y-119738754D01*
X140578718Y-119745208D01*
X140585822Y-119752054D01*
X140592436Y-119759290D01*
X140598560Y-119766918D01*
X140604194Y-119774937D01*
X140609338Y-119783347D01*
X140613992Y-119792149D01*
X140618157Y-119801341D01*
X140621831Y-119810925D01*
X140625016Y-119820900D01*
X140627710Y-119831266D01*
X140629915Y-119842023D01*
X140631629Y-119853171D01*
X140632854Y-119864711D01*
X140633589Y-119876641D01*
X140633834Y-119888963D01*
X140633442Y-119902638D01*
X140632266Y-119915941D01*
X140630305Y-119928871D01*
X140627560Y-119941430D01*
X140624031Y-119953616D01*
X140619718Y-119965430D01*
X140614620Y-119976873D01*
X140608738Y-119987943D01*
X140602072Y-119998641D01*
X140594622Y-120008967D01*
X140586387Y-120018920D01*
X140577368Y-120028502D01*
X140567565Y-120037712D01*
X140556978Y-120046549D01*
X140545606Y-120055015D01*
X140533450Y-120063108D01*
X140520771Y-120070769D01*
X140507767Y-120077935D01*
X140494438Y-120084607D01*
X140480785Y-120090784D01*
X140466808Y-120096468D01*
X140452507Y-120101657D01*
X140437881Y-120106352D01*
X140422930Y-120110553D01*
X140407656Y-120114259D01*
X140392057Y-120117471D01*
X140376133Y-120120190D01*
X140359885Y-120122414D01*
X140343313Y-120124143D01*
X140326416Y-120125379D01*
X140309195Y-120126120D01*
X140291650Y-120126367D01*
X140281118Y-120126269D01*
X140270650Y-120125973D01*
X140260245Y-120125481D01*
X140249903Y-120124791D01*
X140239625Y-120123905D01*
X140229411Y-120122821D01*
X140219260Y-120121540D01*
X140209172Y-120120063D01*
X140199148Y-120118388D01*
X140189187Y-120116516D01*
X140179290Y-120114448D01*
X140169456Y-120112182D01*
X140159686Y-120109719D01*
X140149979Y-120107060D01*
X140140335Y-120104203D01*
X140130755Y-120101149D01*
X140121238Y-120097898D01*
X140111785Y-120094451D01*
X140102395Y-120090806D01*
X140093069Y-120086964D01*
X140083806Y-120082925D01*
X140074607Y-120078689D01*
X140065471Y-120074256D01*
X140056398Y-120069627D01*
X140047389Y-120064800D01*
X140038444Y-120059776D01*
X140029561Y-120054555D01*
X140020743Y-120049137D01*
X140011987Y-120043522D01*
X140003295Y-120037710D01*
X139994667Y-120031701D01*
X139986102Y-120025495D01*
X140094546Y-119889696D01*
X140105891Y-119899900D01*
X140117394Y-119909445D01*
X140129056Y-119918332D01*
X140140876Y-119926561D01*
X140152854Y-119934132D01*
X140164991Y-119941044D01*
X140177286Y-119947298D01*
X140189740Y-119952894D01*
X140202351Y-119957831D01*
X140215122Y-119962110D01*
X140228050Y-119965731D01*
X140241137Y-119968693D01*
X140254383Y-119970997D01*
X140267787Y-119972643D01*
X140281349Y-119973631D01*
X140295069Y-119973960D01*
X140308761Y-119973771D01*
X140321994Y-119973204D01*
X140334768Y-119972260D01*
X140347082Y-119970937D01*
X140358936Y-119969237D01*
X140370331Y-119967159D01*
X140381267Y-119964703D01*
X140391744Y-119961870D01*
X140401761Y-119958658D01*
X140411318Y-119955069D01*
X140417435Y-119952466D01*
X140428712Y-119946841D01*
X140438486Y-119940712D01*
X140446756Y-119934079D01*
X140453522Y-119926943D01*
X140459865Y-119917314D01*
X140463859Y-119906898D01*
X140465504Y-119895695D01*
X140465551Y-119893360D01*
X140464615Y-119881924D01*
X140461807Y-119871612D01*
X140457127Y-119862426D01*
X140450576Y-119854365D01*
X140442152Y-119847428D01*
X140431857Y-119841616D01*
X140419689Y-119836929D01*
X140405650Y-119833367D01*
X140395251Y-119831618D01*
X140384019Y-119830368D01*
X140371956Y-119829618D01*
X140359061Y-119829368D01*
X140347257Y-119829505D01*
X140335899Y-119829830D01*
X140325816Y-119830227D01*
X140314848Y-119830746D01*
X140302995Y-119831387D01*
X140290256Y-119832150D01*
X140280121Y-119832803D01*
X140273087Y-119833276D01*
X140262664Y-119833974D01*
X140252734Y-119834604D01*
X140240263Y-119835337D01*
X140228669Y-119835947D01*
X140217952Y-119836436D01*
X140208114Y-119836802D01*
X140197050Y-119837088D01*
X140187358Y-119837184D01*
X140176449Y-119837062D01*
X140165886Y-119836696D01*
X140155669Y-119836087D01*
X140145799Y-119835234D01*
X140127097Y-119832796D01*
X140109781Y-119829383D01*
X140093849Y-119824995D01*
X140079304Y-119819633D01*
X140066143Y-119813295D01*
X140054368Y-119805982D01*
X140043978Y-119797694D01*
X140034974Y-119788431D01*
X140027354Y-119778192D01*
X140021120Y-119766979D01*
X140016272Y-119754791D01*
X140012809Y-119741628D01*
X140010731Y-119727489D01*
X140010038Y-119712376D01*
X140010759Y-119701262D01*
X140012924Y-119690208D01*
X140016532Y-119679213D01*
X140021582Y-119668278D01*
X140026662Y-119659573D01*
X140032665Y-119650907D01*
X140039591Y-119642278D01*
X140047128Y-119633955D01*
X140054963Y-119626204D01*
X140063096Y-119619025D01*
X140071526Y-119612419D01*
X140080254Y-119606386D01*
X140089279Y-119600925D01*
X140098603Y-119596036D01*
X140108224Y-119591720D01*
X140093021Y-119581383D01*
X140078800Y-119570524D01*
X140065559Y-119559142D01*
X140053299Y-119547237D01*
X140042020Y-119534809D01*
X140031722Y-119521859D01*
X140022405Y-119508385D01*
X140014068Y-119494389D01*
X140006712Y-119479870D01*
X140000337Y-119464828D01*
X139994943Y-119449263D01*
X139990529Y-119433176D01*
X139987096Y-119416565D01*
X139984644Y-119399432D01*
X139983173Y-119381776D01*
X139982709Y-119364574D01*
X140157805Y-119364574D01*
X140158120Y-119376262D01*
X140159067Y-119387512D01*
X140160645Y-119398324D01*
X140162854Y-119408698D01*
X140165694Y-119418634D01*
X140169165Y-119428132D01*
X140173267Y-119437193D01*
X140178001Y-119445815D01*
X140183365Y-119454000D01*
X140189361Y-119461746D01*
X140193709Y-119466667D01*
X140200705Y-119473520D01*
X140210715Y-119481609D01*
X140221504Y-119488499D01*
X140233071Y-119494191D01*
X140242257Y-119497674D01*
X140251882Y-119500482D01*
X140261944Y-119502617D01*
X140272444Y-119504077D01*
X140283382Y-119504864D01*
X140290917Y-119505013D01*
X140302163Y-119504685D01*
X140312910Y-119503700D01*
X140323160Y-119502057D01*
X140332912Y-119499758D01*
X140345139Y-119495671D01*
X140356481Y-119490416D01*
X140366938Y-119483993D01*
X140376509Y-119476403D01*
X140385195Y-119467644D01*
X140392923Y-119457806D01*
X140399620Y-119447097D01*
X140405288Y-119435519D01*
X140408862Y-119426264D01*
X140411856Y-119416519D01*
X140414271Y-119406285D01*
X140416107Y-119395562D01*
X140417363Y-119384349D01*
X140418039Y-119372647D01*
X140418168Y-119364574D01*
X140417856Y-119354555D01*
X140416473Y-119341658D01*
X140413983Y-119329288D01*
X140410386Y-119317444D01*
X140405682Y-119306127D01*
X140399872Y-119295336D01*
X140392955Y-119285072D01*
X140384931Y-119275335D01*
X140382752Y-119272983D01*
X140373570Y-119264167D01*
X140363732Y-119256527D01*
X140353237Y-119250062D01*
X140342086Y-119244773D01*
X140330278Y-119240659D01*
X140317814Y-119237720D01*
X140308036Y-119236288D01*
X140297888Y-119235516D01*
X140290917Y-119235369D01*
X140280071Y-119235687D01*
X140269608Y-119236640D01*
X140259526Y-119238229D01*
X140249827Y-119240453D01*
X140237489Y-119244406D01*
X140225830Y-119249490D01*
X140214851Y-119255703D01*
X140204551Y-119263045D01*
X140194930Y-119271517D01*
X140186229Y-119280879D01*
X140178688Y-119290889D01*
X140172307Y-119301548D01*
X140167086Y-119312855D01*
X140163025Y-119324812D01*
X140160125Y-119337417D01*
X140158711Y-119347297D01*
X140157950Y-119357541D01*
X140157805Y-119364574D01*
X139982709Y-119364574D01*
X139982683Y-119363597D01*
X139983020Y-119349191D01*
X139984034Y-119335101D01*
X139985722Y-119321325D01*
X139988087Y-119307864D01*
X139991126Y-119294718D01*
X139994841Y-119281886D01*
X139999232Y-119269370D01*
X140004298Y-119257168D01*
X140010040Y-119245281D01*
X140016457Y-119233709D01*
X140023549Y-119222452D01*
X140031318Y-119211510D01*
X140039761Y-119200882D01*
X140048880Y-119190570D01*
X140058675Y-119180572D01*
X140069145Y-119170889D01*
X140080109Y-119161661D01*
X140091386Y-119153029D01*
X140102976Y-119144992D01*
X140114879Y-119137550D01*
X140127095Y-119130704D01*
X140139624Y-119124453D01*
X140152466Y-119118797D01*
X140165621Y-119113736D01*
X140179088Y-119109271D01*
X140192869Y-119105402D01*
X140206962Y-119102127D01*
X140221369Y-119099448D01*
X140236088Y-119097365D01*
X140251121Y-119095876D01*
X140266466Y-119094983D01*
X140282124Y-119094685D01*
X140294363Y-119094829D01*
X140306350Y-119095258D01*
X140318085Y-119095973D01*
X140329569Y-119096975D01*
X140340800Y-119098263D01*
X140351779Y-119099837D01*
X140362507Y-119101698D01*
X140372983Y-119103845D01*
X140383207Y-119106277D01*
X140393179Y-119108997D01*
X140402899Y-119112002D01*
X140412367Y-119115293D01*
X140421583Y-119118871D01*
X140434936Y-119124775D01*
X140447721Y-119131322D01*
X140514888Y-119047791D01*
X140633834Y-119155746D01*
G37*
G36*
X141462550Y-119845000D02*
G01*
X141462550Y-119128391D01*
X141257875Y-119250757D01*
X141257875Y-119079054D01*
X141270113Y-119073087D01*
X141282191Y-119067033D01*
X141294108Y-119060890D01*
X141305864Y-119054660D01*
X141317460Y-119048342D01*
X141328895Y-119041937D01*
X141340169Y-119035443D01*
X141351282Y-119028862D01*
X141362235Y-119022193D01*
X141373027Y-119015436D01*
X141383658Y-119008592D01*
X141394128Y-119001659D01*
X141404437Y-118994639D01*
X141414586Y-118987532D01*
X141424574Y-118980336D01*
X141434401Y-118973053D01*
X141444068Y-118965681D01*
X141453573Y-118958222D01*
X141462918Y-118950676D01*
X141472102Y-118943041D01*
X141481126Y-118935319D01*
X141489988Y-118927509D01*
X141498690Y-118919611D01*
X141507231Y-118911625D01*
X141515612Y-118903552D01*
X141523831Y-118895391D01*
X141531890Y-118887142D01*
X141539788Y-118878805D01*
X141547525Y-118870381D01*
X141555102Y-118861869D01*
X141562518Y-118853269D01*
X141569773Y-118844581D01*
X141641336Y-118844581D01*
X141641336Y-119845000D01*
X141462550Y-119845000D01*
G37*
G36*
X142010875Y-119752920D02*
G01*
X142011440Y-119740341D01*
X142013135Y-119728251D01*
X142015959Y-119716650D01*
X142019912Y-119705537D01*
X142024996Y-119694912D01*
X142031209Y-119684776D01*
X142038551Y-119675129D01*
X142047023Y-119665969D01*
X142056301Y-119657555D01*
X142066059Y-119650262D01*
X142076298Y-119644091D01*
X142087018Y-119639042D01*
X142098219Y-119635115D01*
X142109900Y-119632310D01*
X142122063Y-119630627D01*
X142134706Y-119630066D01*
X142147346Y-119630627D01*
X142159497Y-119632310D01*
X142171160Y-119635115D01*
X142182334Y-119639042D01*
X142193019Y-119644091D01*
X142203217Y-119650262D01*
X142212925Y-119657555D01*
X142222145Y-119665969D01*
X142230618Y-119675129D01*
X142237960Y-119684776D01*
X142244173Y-119694912D01*
X142249256Y-119705537D01*
X142253210Y-119716650D01*
X142256034Y-119728251D01*
X142257728Y-119740341D01*
X142258293Y-119752920D01*
X142257728Y-119765449D01*
X142256034Y-119777512D01*
X142253210Y-119789110D01*
X142249256Y-119800242D01*
X142244173Y-119810909D01*
X142237960Y-119821109D01*
X142230618Y-119830845D01*
X142222145Y-119840115D01*
X142212925Y-119848587D01*
X142203217Y-119855929D01*
X142193019Y-119862142D01*
X142182334Y-119867226D01*
X142171160Y-119871179D01*
X142159497Y-119874003D01*
X142147346Y-119875698D01*
X142134706Y-119876263D01*
X142122063Y-119875698D01*
X142109900Y-119874003D01*
X142098219Y-119871179D01*
X142087018Y-119867226D01*
X142076298Y-119862142D01*
X142066059Y-119855929D01*
X142056301Y-119848587D01*
X142047023Y-119840115D01*
X142038551Y-119830845D01*
X142031209Y-119821109D01*
X142024996Y-119810909D01*
X142019912Y-119800242D01*
X142015959Y-119789110D01*
X142013135Y-119777512D01*
X142011440Y-119765449D01*
X142010875Y-119752920D01*
G37*
G36*
X142847995Y-118829447D02*
G01*
X142868903Y-118830938D01*
X142889126Y-118833425D01*
X142908662Y-118836906D01*
X142927514Y-118841382D01*
X142945679Y-118846852D01*
X142963160Y-118853317D01*
X142979955Y-118860777D01*
X142996064Y-118869231D01*
X143011488Y-118878680D01*
X143026226Y-118889124D01*
X143040279Y-118900562D01*
X143053646Y-118912995D01*
X143066328Y-118926422D01*
X143078324Y-118940844D01*
X143089635Y-118956261D01*
X143100260Y-118972672D01*
X143110200Y-118990078D01*
X143119454Y-119008478D01*
X143128023Y-119027874D01*
X143135906Y-119048263D01*
X143143104Y-119069648D01*
X143149616Y-119092027D01*
X143155443Y-119115400D01*
X143160584Y-119139769D01*
X143165040Y-119165131D01*
X143168810Y-119191489D01*
X143171895Y-119218841D01*
X143174294Y-119247188D01*
X143176008Y-119276529D01*
X143177036Y-119306865D01*
X143177379Y-119338196D01*
X143177287Y-119353000D01*
X143177009Y-119367617D01*
X143176546Y-119382046D01*
X143175898Y-119396287D01*
X143175065Y-119410340D01*
X143174047Y-119424205D01*
X143172844Y-119437882D01*
X143171456Y-119451372D01*
X143169883Y-119464673D01*
X143168125Y-119477786D01*
X143166181Y-119490711D01*
X143164053Y-119503449D01*
X143161739Y-119515998D01*
X143159240Y-119528360D01*
X143156556Y-119540533D01*
X143153688Y-119552519D01*
X143150634Y-119564316D01*
X143147394Y-119575926D01*
X143143970Y-119587348D01*
X143140361Y-119598581D01*
X143136567Y-119609627D01*
X143132587Y-119620485D01*
X143128423Y-119631155D01*
X143124073Y-119641637D01*
X143119538Y-119651931D01*
X143114819Y-119662037D01*
X143109914Y-119671955D01*
X143104824Y-119681685D01*
X143099549Y-119691227D01*
X143094088Y-119700581D01*
X143088443Y-119709748D01*
X143082613Y-119718726D01*
X143076616Y-119727456D01*
X143070469Y-119735910D01*
X143064174Y-119744086D01*
X143057731Y-119751985D01*
X143051138Y-119759607D01*
X143044397Y-119766952D01*
X143037506Y-119774019D01*
X143030467Y-119780809D01*
X143015942Y-119793559D01*
X143000822Y-119805199D01*
X142985107Y-119815731D01*
X142968796Y-119825155D01*
X142951890Y-119833470D01*
X142934388Y-119840676D01*
X142916291Y-119846773D01*
X142897599Y-119851762D01*
X142888030Y-119853841D01*
X142878311Y-119855642D01*
X142868444Y-119857167D01*
X142858428Y-119858414D01*
X142848264Y-119859384D01*
X142837950Y-119860077D01*
X142827488Y-119860492D01*
X142816877Y-119860631D01*
X142805461Y-119860503D01*
X142794233Y-119860120D01*
X142783193Y-119859480D01*
X142772341Y-119858586D01*
X142761676Y-119857435D01*
X142751200Y-119856029D01*
X142740912Y-119854367D01*
X142730812Y-119852449D01*
X142720899Y-119850276D01*
X142711175Y-119847846D01*
X142701638Y-119845162D01*
X142692290Y-119842221D01*
X142674157Y-119835573D01*
X142656775Y-119827903D01*
X142640146Y-119819209D01*
X142624268Y-119809493D01*
X142609142Y-119798754D01*
X142594768Y-119786992D01*
X142581146Y-119774207D01*
X142568276Y-119760400D01*
X142556157Y-119745570D01*
X142544790Y-119729717D01*
X142539381Y-119721372D01*
X142534143Y-119712732D01*
X142529077Y-119703798D01*
X142524182Y-119694569D01*
X142519459Y-119685045D01*
X142514909Y-119675226D01*
X142510529Y-119665112D01*
X142506322Y-119654704D01*
X142502286Y-119644001D01*
X142498422Y-119633002D01*
X142494730Y-119621710D01*
X142491209Y-119610122D01*
X142487861Y-119598239D01*
X142484684Y-119586062D01*
X142481678Y-119573590D01*
X142478845Y-119560823D01*
X142476183Y-119547761D01*
X142473693Y-119534405D01*
X142471374Y-119520753D01*
X142469228Y-119506807D01*
X142467253Y-119492566D01*
X142465449Y-119478030D01*
X142463818Y-119463200D01*
X142462358Y-119448074D01*
X142461070Y-119432654D01*
X142459954Y-119416939D01*
X142459009Y-119400929D01*
X142458237Y-119384625D01*
X142457636Y-119368025D01*
X142457206Y-119351131D01*
X142456949Y-119333942D01*
X142456924Y-119328914D01*
X142642243Y-119328914D01*
X142642281Y-119341268D01*
X142642396Y-119353416D01*
X142642587Y-119365358D01*
X142642854Y-119377095D01*
X142643197Y-119388626D01*
X142643617Y-119399952D01*
X142644113Y-119411072D01*
X142644685Y-119421986D01*
X142645334Y-119432695D01*
X142646059Y-119443198D01*
X142646861Y-119453496D01*
X142647739Y-119463588D01*
X142648693Y-119473474D01*
X142650830Y-119492630D01*
X142653272Y-119510963D01*
X142656020Y-119528474D01*
X142659073Y-119545163D01*
X142662431Y-119561029D01*
X142666095Y-119576073D01*
X142670064Y-119590295D01*
X142674338Y-119603694D01*
X142678918Y-119616270D01*
X142681322Y-119622250D01*
X142686438Y-119633607D01*
X142691954Y-119644232D01*
X142697871Y-119654124D01*
X142704189Y-119663283D01*
X142710908Y-119671709D01*
X142718027Y-119679403D01*
X142725547Y-119686364D01*
X142733468Y-119692592D01*
X142741789Y-119698087D01*
X142750511Y-119702850D01*
X142759634Y-119706880D01*
X142769158Y-119710177D01*
X142779082Y-119712742D01*
X142789407Y-119714574D01*
X142800133Y-119715673D01*
X142811259Y-119716039D01*
X142823310Y-119715708D01*
X142834916Y-119714715D01*
X142846078Y-119713060D01*
X142856795Y-119710742D01*
X142867068Y-119707763D01*
X142876896Y-119704121D01*
X142886279Y-119699817D01*
X142895218Y-119694851D01*
X142903712Y-119689223D01*
X142911761Y-119682933D01*
X142919366Y-119675981D01*
X142926526Y-119668366D01*
X142933242Y-119660090D01*
X142939513Y-119651151D01*
X142945340Y-119641550D01*
X142950722Y-119631287D01*
X142955720Y-119620176D01*
X142960396Y-119608031D01*
X142964750Y-119594851D01*
X142968780Y-119580637D01*
X142972489Y-119565389D01*
X142975875Y-119549107D01*
X142978938Y-119531790D01*
X142981680Y-119513440D01*
X142984098Y-119494055D01*
X142985186Y-119483975D01*
X142986194Y-119473636D01*
X142987121Y-119463039D01*
X142987968Y-119452183D01*
X142988734Y-119441068D01*
X142989419Y-119429695D01*
X142990024Y-119418063D01*
X142990548Y-119406173D01*
X142990991Y-119394025D01*
X142991354Y-119381617D01*
X142991636Y-119368952D01*
X142991838Y-119356027D01*
X142991958Y-119342844D01*
X142991999Y-119329403D01*
X142991960Y-119316901D01*
X142991844Y-119304643D01*
X142991651Y-119292629D01*
X142991381Y-119280860D01*
X142991033Y-119269334D01*
X142990608Y-119258053D01*
X142990105Y-119247017D01*
X142989526Y-119236224D01*
X142988869Y-119225676D01*
X142988135Y-119215372D01*
X142987323Y-119205312D01*
X142986435Y-119195497D01*
X142984425Y-119176598D01*
X142982107Y-119158677D01*
X142979479Y-119141733D01*
X142976543Y-119125765D01*
X142973297Y-119110775D01*
X142969742Y-119096762D01*
X142965878Y-119083725D01*
X142961705Y-119071666D01*
X142957223Y-119060583D01*
X142952431Y-119050478D01*
X142947289Y-119041161D01*
X142941753Y-119032446D01*
X142935825Y-119024331D01*
X142929503Y-119016818D01*
X142919284Y-119006675D01*
X142908180Y-118997884D01*
X142896191Y-118990446D01*
X142883318Y-118984360D01*
X142869561Y-118979627D01*
X142859898Y-118977223D01*
X142849842Y-118975419D01*
X142839393Y-118974217D01*
X142828551Y-118973616D01*
X142822983Y-118973541D01*
X142811863Y-118973888D01*
X142801096Y-118974929D01*
X142790683Y-118976664D01*
X142780622Y-118979094D01*
X142770914Y-118982217D01*
X142761559Y-118986035D01*
X142752558Y-118990546D01*
X142743909Y-118995752D01*
X142735613Y-119001652D01*
X142727671Y-119008245D01*
X142720081Y-119015533D01*
X142712844Y-119023515D01*
X142705961Y-119032192D01*
X142699430Y-119041562D01*
X142693253Y-119051626D01*
X142687428Y-119062384D01*
X142681956Y-119073837D01*
X142676838Y-119085983D01*
X142672072Y-119098824D01*
X142667660Y-119112359D01*
X142663600Y-119126588D01*
X142659893Y-119141510D01*
X142656540Y-119157127D01*
X142653539Y-119173439D01*
X142650892Y-119190444D01*
X142648597Y-119208143D01*
X142646656Y-119226536D01*
X142645067Y-119245624D01*
X142643832Y-119265405D01*
X142642949Y-119285881D01*
X142642420Y-119307051D01*
X142642243Y-119328914D01*
X142456924Y-119328914D01*
X142456863Y-119316458D01*
X142456961Y-119303713D01*
X142457256Y-119291092D01*
X142457747Y-119278596D01*
X142458435Y-119266224D01*
X142459319Y-119253977D01*
X142460400Y-119241854D01*
X142461678Y-119229856D01*
X142463152Y-119217982D01*
X142464823Y-119206233D01*
X142466690Y-119194608D01*
X142468753Y-119183108D01*
X142471014Y-119171733D01*
X142473470Y-119160481D01*
X142476124Y-119149355D01*
X142478973Y-119138353D01*
X142482020Y-119127475D01*
X142485263Y-119116722D01*
X142488702Y-119106093D01*
X142492338Y-119095589D01*
X142496171Y-119085210D01*
X142500200Y-119074955D01*
X142504425Y-119064824D01*
X142508847Y-119054818D01*
X142513466Y-119044936D01*
X142518281Y-119035179D01*
X142523293Y-119025547D01*
X142528501Y-119016039D01*
X142533906Y-119006655D01*
X142539507Y-118997396D01*
X142545305Y-118988261D01*
X142551300Y-118979251D01*
X142557491Y-118970366D01*
X142563846Y-118961665D01*
X142570334Y-118953241D01*
X142576953Y-118945093D01*
X142583705Y-118937221D01*
X142590589Y-118929626D01*
X142597605Y-118922306D01*
X142604753Y-118915263D01*
X142612033Y-118908496D01*
X142619446Y-118902005D01*
X142626990Y-118895791D01*
X142642476Y-118884190D01*
X142658490Y-118873694D01*
X142675033Y-118864303D01*
X142692104Y-118856017D01*
X142709704Y-118848836D01*
X142727832Y-118842759D01*
X142746489Y-118837788D01*
X142765674Y-118833921D01*
X142775465Y-118832402D01*
X142785388Y-118831159D01*
X142795444Y-118830192D01*
X142805631Y-118829502D01*
X142815951Y-118829087D01*
X142826402Y-118828949D01*
X142847995Y-118829447D01*
G37*
D11*
%TO.C,R4*%
X149693333Y-107142619D02*
X149360000Y-106666428D01*
X149121905Y-107142619D02*
X149121905Y-106142619D01*
X149121905Y-106142619D02*
X149502857Y-106142619D01*
X149502857Y-106142619D02*
X149598095Y-106190238D01*
X149598095Y-106190238D02*
X149645714Y-106237857D01*
X149645714Y-106237857D02*
X149693333Y-106333095D01*
X149693333Y-106333095D02*
X149693333Y-106475952D01*
X149693333Y-106475952D02*
X149645714Y-106571190D01*
X149645714Y-106571190D02*
X149598095Y-106618809D01*
X149598095Y-106618809D02*
X149502857Y-106666428D01*
X149502857Y-106666428D02*
X149121905Y-106666428D01*
X150550476Y-106475952D02*
X150550476Y-107142619D01*
X150312381Y-106095000D02*
X150074286Y-106809285D01*
X150074286Y-106809285D02*
X150693333Y-106809285D01*
%TO.C,R3*%
X145248333Y-107142619D02*
X144915000Y-106666428D01*
X144676905Y-107142619D02*
X144676905Y-106142619D01*
X144676905Y-106142619D02*
X145057857Y-106142619D01*
X145057857Y-106142619D02*
X145153095Y-106190238D01*
X145153095Y-106190238D02*
X145200714Y-106237857D01*
X145200714Y-106237857D02*
X145248333Y-106333095D01*
X145248333Y-106333095D02*
X145248333Y-106475952D01*
X145248333Y-106475952D02*
X145200714Y-106571190D01*
X145200714Y-106571190D02*
X145153095Y-106618809D01*
X145153095Y-106618809D02*
X145057857Y-106666428D01*
X145057857Y-106666428D02*
X144676905Y-106666428D01*
X145581667Y-106142619D02*
X146200714Y-106142619D01*
X146200714Y-106142619D02*
X145867381Y-106523571D01*
X145867381Y-106523571D02*
X146010238Y-106523571D01*
X146010238Y-106523571D02*
X146105476Y-106571190D01*
X146105476Y-106571190D02*
X146153095Y-106618809D01*
X146153095Y-106618809D02*
X146200714Y-106714047D01*
X146200714Y-106714047D02*
X146200714Y-106952142D01*
X146200714Y-106952142D02*
X146153095Y-107047380D01*
X146153095Y-107047380D02*
X146105476Y-107095000D01*
X146105476Y-107095000D02*
X146010238Y-107142619D01*
X146010238Y-107142619D02*
X145724524Y-107142619D01*
X145724524Y-107142619D02*
X145629286Y-107095000D01*
X145629286Y-107095000D02*
X145581667Y-107047380D01*
%TO.C,R2*%
X142073333Y-107142619D02*
X141740000Y-106666428D01*
X141501905Y-107142619D02*
X141501905Y-106142619D01*
X141501905Y-106142619D02*
X141882857Y-106142619D01*
X141882857Y-106142619D02*
X141978095Y-106190238D01*
X141978095Y-106190238D02*
X142025714Y-106237857D01*
X142025714Y-106237857D02*
X142073333Y-106333095D01*
X142073333Y-106333095D02*
X142073333Y-106475952D01*
X142073333Y-106475952D02*
X142025714Y-106571190D01*
X142025714Y-106571190D02*
X141978095Y-106618809D01*
X141978095Y-106618809D02*
X141882857Y-106666428D01*
X141882857Y-106666428D02*
X141501905Y-106666428D01*
X142454286Y-106237857D02*
X142501905Y-106190238D01*
X142501905Y-106190238D02*
X142597143Y-106142619D01*
X142597143Y-106142619D02*
X142835238Y-106142619D01*
X142835238Y-106142619D02*
X142930476Y-106190238D01*
X142930476Y-106190238D02*
X142978095Y-106237857D01*
X142978095Y-106237857D02*
X143025714Y-106333095D01*
X143025714Y-106333095D02*
X143025714Y-106428333D01*
X143025714Y-106428333D02*
X142978095Y-106571190D01*
X142978095Y-106571190D02*
X142406667Y-107142619D01*
X142406667Y-107142619D02*
X143025714Y-107142619D01*
%TO.C,R1*%
X137628333Y-107142619D02*
X137295000Y-106666428D01*
X137056905Y-107142619D02*
X137056905Y-106142619D01*
X137056905Y-106142619D02*
X137437857Y-106142619D01*
X137437857Y-106142619D02*
X137533095Y-106190238D01*
X137533095Y-106190238D02*
X137580714Y-106237857D01*
X137580714Y-106237857D02*
X137628333Y-106333095D01*
X137628333Y-106333095D02*
X137628333Y-106475952D01*
X137628333Y-106475952D02*
X137580714Y-106571190D01*
X137580714Y-106571190D02*
X137533095Y-106618809D01*
X137533095Y-106618809D02*
X137437857Y-106666428D01*
X137437857Y-106666428D02*
X137056905Y-106666428D01*
X138580714Y-107142619D02*
X138009286Y-107142619D01*
X138295000Y-107142619D02*
X138295000Y-106142619D01*
X138295000Y-106142619D02*
X138199762Y-106285476D01*
X138199762Y-106285476D02*
X138104524Y-106380714D01*
X138104524Y-106380714D02*
X138009286Y-106428333D01*
%TO.C,Q1*%
X152860714Y-109412857D02*
X152908333Y-109365238D01*
X152908333Y-109365238D02*
X153003571Y-109317619D01*
X153003571Y-109317619D02*
X153241666Y-109317619D01*
X153241666Y-109317619D02*
X153336904Y-109365238D01*
X153336904Y-109365238D02*
X153384523Y-109412857D01*
X153384523Y-109412857D02*
X153432142Y-109508095D01*
X153432142Y-109508095D02*
X153432142Y-109603333D01*
X153432142Y-109603333D02*
X153384523Y-109746190D01*
X153384523Y-109746190D02*
X152813095Y-110317619D01*
X152813095Y-110317619D02*
X153432142Y-110317619D01*
X153860714Y-110317619D02*
X153860714Y-109317619D01*
X153860714Y-109317619D02*
X154432142Y-110317619D01*
X154432142Y-110317619D02*
X154432142Y-109317619D01*
X154813095Y-109317619D02*
X155479761Y-109317619D01*
X155479761Y-109317619D02*
X155051190Y-110317619D01*
X156051190Y-109317619D02*
X156146428Y-109317619D01*
X156146428Y-109317619D02*
X156241666Y-109365238D01*
X156241666Y-109365238D02*
X156289285Y-109412857D01*
X156289285Y-109412857D02*
X156336904Y-109508095D01*
X156336904Y-109508095D02*
X156384523Y-109698571D01*
X156384523Y-109698571D02*
X156384523Y-109936666D01*
X156384523Y-109936666D02*
X156336904Y-110127142D01*
X156336904Y-110127142D02*
X156289285Y-110222380D01*
X156289285Y-110222380D02*
X156241666Y-110270000D01*
X156241666Y-110270000D02*
X156146428Y-110317619D01*
X156146428Y-110317619D02*
X156051190Y-110317619D01*
X156051190Y-110317619D02*
X155955952Y-110270000D01*
X155955952Y-110270000D02*
X155908333Y-110222380D01*
X155908333Y-110222380D02*
X155860714Y-110127142D01*
X155860714Y-110127142D02*
X155813095Y-109936666D01*
X155813095Y-109936666D02*
X155813095Y-109698571D01*
X155813095Y-109698571D02*
X155860714Y-109508095D01*
X155860714Y-109508095D02*
X155908333Y-109412857D01*
X155908333Y-109412857D02*
X155955952Y-109365238D01*
X155955952Y-109365238D02*
X156051190Y-109317619D01*
X157003571Y-109317619D02*
X157098809Y-109317619D01*
X157098809Y-109317619D02*
X157194047Y-109365238D01*
X157194047Y-109365238D02*
X157241666Y-109412857D01*
X157241666Y-109412857D02*
X157289285Y-109508095D01*
X157289285Y-109508095D02*
X157336904Y-109698571D01*
X157336904Y-109698571D02*
X157336904Y-109936666D01*
X157336904Y-109936666D02*
X157289285Y-110127142D01*
X157289285Y-110127142D02*
X157241666Y-110222380D01*
X157241666Y-110222380D02*
X157194047Y-110270000D01*
X157194047Y-110270000D02*
X157098809Y-110317619D01*
X157098809Y-110317619D02*
X157003571Y-110317619D01*
X157003571Y-110317619D02*
X156908333Y-110270000D01*
X156908333Y-110270000D02*
X156860714Y-110222380D01*
X156860714Y-110222380D02*
X156813095Y-110127142D01*
X156813095Y-110127142D02*
X156765476Y-109936666D01*
X156765476Y-109936666D02*
X156765476Y-109698571D01*
X156765476Y-109698571D02*
X156813095Y-109508095D01*
X156813095Y-109508095D02*
X156860714Y-109412857D01*
X156860714Y-109412857D02*
X156908333Y-109365238D01*
X156908333Y-109365238D02*
X157003571Y-109317619D01*
X157955952Y-109317619D02*
X158051190Y-109317619D01*
X158051190Y-109317619D02*
X158146428Y-109365238D01*
X158146428Y-109365238D02*
X158194047Y-109412857D01*
X158194047Y-109412857D02*
X158241666Y-109508095D01*
X158241666Y-109508095D02*
X158289285Y-109698571D01*
X158289285Y-109698571D02*
X158289285Y-109936666D01*
X158289285Y-109936666D02*
X158241666Y-110127142D01*
X158241666Y-110127142D02*
X158194047Y-110222380D01*
X158194047Y-110222380D02*
X158146428Y-110270000D01*
X158146428Y-110270000D02*
X158051190Y-110317619D01*
X158051190Y-110317619D02*
X157955952Y-110317619D01*
X157955952Y-110317619D02*
X157860714Y-110270000D01*
X157860714Y-110270000D02*
X157813095Y-110222380D01*
X157813095Y-110222380D02*
X157765476Y-110127142D01*
X157765476Y-110127142D02*
X157717857Y-109936666D01*
X157717857Y-109936666D02*
X157717857Y-109698571D01*
X157717857Y-109698571D02*
X157765476Y-109508095D01*
X157765476Y-109508095D02*
X157813095Y-109412857D01*
X157813095Y-109412857D02*
X157860714Y-109365238D01*
X157860714Y-109365238D02*
X157955952Y-109317619D01*
%TO.C,J1*%
X150032619Y-126073333D02*
X150746904Y-126073333D01*
X150746904Y-126073333D02*
X150889761Y-126120952D01*
X150889761Y-126120952D02*
X150985000Y-126216190D01*
X150985000Y-126216190D02*
X151032619Y-126359047D01*
X151032619Y-126359047D02*
X151032619Y-126454285D01*
X151032619Y-125073333D02*
X151032619Y-125644761D01*
X151032619Y-125359047D02*
X150032619Y-125359047D01*
X150032619Y-125359047D02*
X150175476Y-125454285D01*
X150175476Y-125454285D02*
X150270714Y-125549523D01*
X150270714Y-125549523D02*
X150318333Y-125644761D01*
D12*
%TO.C,R4*%
X151230000Y-109125000D02*
X150900000Y-109125000D01*
X148490000Y-115665000D02*
X148490000Y-109125000D01*
X151230000Y-115665000D02*
X151230000Y-109125000D01*
X150900000Y-115665000D02*
X151230000Y-115665000D01*
X148820000Y-115665000D02*
X148490000Y-115665000D01*
X148490000Y-109125000D02*
X148820000Y-109125000D01*
%TO.C,R3*%
X147145000Y-109125000D02*
X146815000Y-109125000D01*
X144405000Y-115665000D02*
X144405000Y-109125000D01*
X147145000Y-115665000D02*
X147145000Y-109125000D01*
X146815000Y-115665000D02*
X147145000Y-115665000D01*
X144735000Y-115665000D02*
X144405000Y-115665000D01*
X144405000Y-109125000D02*
X144735000Y-109125000D01*
%TO.C,R2*%
X143610000Y-109125000D02*
X143280000Y-109125000D01*
X140870000Y-115665000D02*
X140870000Y-109125000D01*
X143610000Y-115665000D02*
X143610000Y-109125000D01*
X143280000Y-115665000D02*
X143610000Y-115665000D01*
X141200000Y-115665000D02*
X140870000Y-115665000D01*
X140870000Y-109125000D02*
X141200000Y-109125000D01*
%TO.C,R1*%
X139800000Y-109125000D02*
X139470000Y-109125000D01*
X137060000Y-115665000D02*
X137060000Y-109125000D01*
X139800000Y-115665000D02*
X139800000Y-109125000D01*
X139470000Y-115665000D02*
X139800000Y-115665000D01*
X137390000Y-115665000D02*
X137060000Y-115665000D01*
X137060000Y-109125000D02*
X137390000Y-109125000D01*
%TO.C,D3*%
X157505000Y-102325000D02*
X157505000Y-96165000D01*
X157505000Y-102325000D02*
X152385000Y-102325000D01*
X156215000Y-102455000D02*
X156215000Y-102455000D01*
X156215000Y-102455000D02*
X156215000Y-102325000D01*
X156215000Y-102325000D02*
X156215000Y-102455000D01*
X156215000Y-102325000D02*
X156215000Y-102325000D01*
X153675000Y-102455000D02*
X153675000Y-102455000D01*
X153675000Y-102455000D02*
X153675000Y-102325000D01*
X153675000Y-102325000D02*
X153675000Y-102455000D01*
X153675000Y-102325000D02*
X153675000Y-102325000D01*
X152385000Y-102325000D02*
X152385000Y-96165000D01*
X152385000Y-102325000D02*
X151985000Y-102325000D01*
X152385000Y-101205000D02*
X152385000Y-102325000D01*
X151985000Y-102325000D02*
X151985000Y-101205000D01*
X151985000Y-101205000D02*
X152385000Y-101205000D01*
X157505000Y-96165000D02*
G75*
G03*
X152385000Y-96165000I-2560000J0D01*
G01*
%TO.C,Q1*%
X153365000Y-111865000D02*
X153365000Y-115465000D01*
X157815000Y-113665000D02*
G75*
G03*
X153376522Y-111826522I-2600000J0D01*
G01*
X153376522Y-115503478D02*
G75*
G03*
X157815000Y-113665000I1838478J1838478D01*
G01*
%TO.C,J1*%
X151750000Y-120720000D02*
X151750000Y-121990000D01*
X150480000Y-120720000D02*
X151750000Y-120720000D01*
X148320000Y-123032929D02*
X148320000Y-123430000D01*
X147560000Y-123032929D02*
X147560000Y-123430000D01*
X145780000Y-123032929D02*
X145780000Y-123430000D01*
X145020000Y-123032929D02*
X145020000Y-123430000D01*
X150860000Y-123100000D02*
X150860000Y-123430000D01*
X150100000Y-123100000D02*
X150100000Y-123430000D01*
X151810000Y-123430000D02*
X144070000Y-123430000D01*
X149210000Y-123430000D02*
X149210000Y-126090000D01*
X146670000Y-123430000D02*
X146670000Y-126090000D01*
X144070000Y-123430000D02*
X144070000Y-126090000D01*
X151810000Y-126090000D02*
X151810000Y-123430000D01*
X150860000Y-126090000D02*
X150860000Y-132090000D01*
X150800000Y-126090000D02*
X150800000Y-132090000D01*
X150680000Y-126090000D02*
X150680000Y-132090000D01*
X150560000Y-126090000D02*
X150560000Y-132090000D01*
X150440000Y-126090000D02*
X150440000Y-132090000D01*
X150320000Y-126090000D02*
X150320000Y-132090000D01*
X150200000Y-126090000D02*
X150200000Y-132090000D01*
X148320000Y-126090000D02*
X148320000Y-132090000D01*
X145780000Y-126090000D02*
X145780000Y-132090000D01*
X144070000Y-126090000D02*
X151810000Y-126090000D01*
X150860000Y-132090000D02*
X150100000Y-132090000D01*
X150100000Y-132090000D02*
X150100000Y-126090000D01*
X148320000Y-132090000D02*
X147560000Y-132090000D01*
X147560000Y-132090000D02*
X147560000Y-126090000D01*
X145780000Y-132090000D02*
X145020000Y-132090000D01*
X145020000Y-132090000D02*
X145020000Y-126090000D01*
%TO.C,D1*%
X142265000Y-102325000D02*
X142265000Y-96165000D01*
X142265000Y-102325000D02*
X137145000Y-102325000D01*
X140975000Y-102455000D02*
X140975000Y-102455000D01*
X140975000Y-102455000D02*
X140975000Y-102325000D01*
X140975000Y-102325000D02*
X140975000Y-102455000D01*
X140975000Y-102325000D02*
X140975000Y-102325000D01*
X138435000Y-102455000D02*
X138435000Y-102455000D01*
X138435000Y-102455000D02*
X138435000Y-102325000D01*
X138435000Y-102325000D02*
X138435000Y-102455000D01*
X138435000Y-102325000D02*
X138435000Y-102325000D01*
X137145000Y-102325000D02*
X137145000Y-96165000D01*
X137145000Y-102325000D02*
X136745000Y-102325000D01*
X137145000Y-101205000D02*
X137145000Y-102325000D01*
X136745000Y-102325000D02*
X136745000Y-101205000D01*
X136745000Y-101205000D02*
X137145000Y-101205000D01*
X142265000Y-96165000D02*
G75*
G03*
X137145000Y-96165000I-2560000J0D01*
G01*
%TO.C,D2*%
X149885000Y-102325000D02*
X149885000Y-96165000D01*
X149885000Y-102325000D02*
X144765000Y-102325000D01*
X148595000Y-102455000D02*
X148595000Y-102455000D01*
X148595000Y-102455000D02*
X148595000Y-102325000D01*
X148595000Y-102325000D02*
X148595000Y-102455000D01*
X148595000Y-102325000D02*
X148595000Y-102325000D01*
X146055000Y-102455000D02*
X146055000Y-102455000D01*
X146055000Y-102455000D02*
X146055000Y-102325000D01*
X146055000Y-102325000D02*
X146055000Y-102455000D01*
X146055000Y-102325000D02*
X146055000Y-102325000D01*
X144765000Y-102325000D02*
X144765000Y-96165000D01*
X144765000Y-102325000D02*
X144365000Y-102325000D01*
X144765000Y-101205000D02*
X144765000Y-102325000D01*
X144365000Y-102325000D02*
X144365000Y-101205000D01*
X144365000Y-101205000D02*
X144765000Y-101205000D01*
X149885000Y-96165000D02*
G75*
G03*
X144765000Y-96165000I-2560000J0D01*
G01*
%TD*%
M02*
