%TF.GenerationSoftware,KiCad,Pcbnew,7.0.1*%
%TF.CreationDate,2023-04-09T02:19:27+02:00*%
%TF.ProjectId,PCB_hello_world,5043425f-6865-46c6-9c6f-5f776f726c64,rev?*%
%TF.SameCoordinates,Original*%
%TF.FileFunction,Legend,Bot*%
%TF.FilePolarity,Positive*%
%FSLAX46Y46*%
G04 Gerber Fmt 4.6, Leading zero omitted, Abs format (unit mm)*
G04 Created by KiCad (PCBNEW 7.0.1) date 2023-04-09 02:19:27*
%MOMM*%
%LPD*%
G01*
G04 APERTURE LIST*
%ADD10C,0.150000*%
G04 APERTURE END LIST*
D10*
%TO.C,R4*%
X149655952Y-111633095D02*
X150322619Y-111633095D01*
X149275000Y-111395000D02*
X149989285Y-111156905D01*
X149989285Y-111156905D02*
X149989285Y-111775952D01*
X149322619Y-112061667D02*
X149322619Y-112728333D01*
X149322619Y-112728333D02*
X150322619Y-112299762D01*
X149322619Y-113299762D02*
X149322619Y-113395000D01*
X149322619Y-113395000D02*
X149370238Y-113490238D01*
X149370238Y-113490238D02*
X149417857Y-113537857D01*
X149417857Y-113537857D02*
X149513095Y-113585476D01*
X149513095Y-113585476D02*
X149703571Y-113633095D01*
X149703571Y-113633095D02*
X149941666Y-113633095D01*
X149941666Y-113633095D02*
X150132142Y-113585476D01*
X150132142Y-113585476D02*
X150227380Y-113537857D01*
X150227380Y-113537857D02*
X150275000Y-113490238D01*
X150275000Y-113490238D02*
X150322619Y-113395000D01*
X150322619Y-113395000D02*
X150322619Y-113299762D01*
X150322619Y-113299762D02*
X150275000Y-113204524D01*
X150275000Y-113204524D02*
X150227380Y-113156905D01*
X150227380Y-113156905D02*
X150132142Y-113109286D01*
X150132142Y-113109286D02*
X149941666Y-113061667D01*
X149941666Y-113061667D02*
X149703571Y-113061667D01*
X149703571Y-113061667D02*
X149513095Y-113109286D01*
X149513095Y-113109286D02*
X149417857Y-113156905D01*
X149417857Y-113156905D02*
X149370238Y-113204524D01*
X149370238Y-113204524D02*
X149322619Y-113299762D01*
%TO.C,R3*%
X144972857Y-111156905D02*
X144925238Y-111204524D01*
X144925238Y-111204524D02*
X144877619Y-111299762D01*
X144877619Y-111299762D02*
X144877619Y-111537857D01*
X144877619Y-111537857D02*
X144925238Y-111633095D01*
X144925238Y-111633095D02*
X144972857Y-111680714D01*
X144972857Y-111680714D02*
X145068095Y-111728333D01*
X145068095Y-111728333D02*
X145163333Y-111728333D01*
X145163333Y-111728333D02*
X145306190Y-111680714D01*
X145306190Y-111680714D02*
X145877619Y-111109286D01*
X145877619Y-111109286D02*
X145877619Y-111728333D01*
X144877619Y-112347381D02*
X144877619Y-112442619D01*
X144877619Y-112442619D02*
X144925238Y-112537857D01*
X144925238Y-112537857D02*
X144972857Y-112585476D01*
X144972857Y-112585476D02*
X145068095Y-112633095D01*
X145068095Y-112633095D02*
X145258571Y-112680714D01*
X145258571Y-112680714D02*
X145496666Y-112680714D01*
X145496666Y-112680714D02*
X145687142Y-112633095D01*
X145687142Y-112633095D02*
X145782380Y-112585476D01*
X145782380Y-112585476D02*
X145830000Y-112537857D01*
X145830000Y-112537857D02*
X145877619Y-112442619D01*
X145877619Y-112442619D02*
X145877619Y-112347381D01*
X145877619Y-112347381D02*
X145830000Y-112252143D01*
X145830000Y-112252143D02*
X145782380Y-112204524D01*
X145782380Y-112204524D02*
X145687142Y-112156905D01*
X145687142Y-112156905D02*
X145496666Y-112109286D01*
X145496666Y-112109286D02*
X145258571Y-112109286D01*
X145258571Y-112109286D02*
X145068095Y-112156905D01*
X145068095Y-112156905D02*
X144972857Y-112204524D01*
X144972857Y-112204524D02*
X144925238Y-112252143D01*
X144925238Y-112252143D02*
X144877619Y-112347381D01*
X144877619Y-113299762D02*
X144877619Y-113395000D01*
X144877619Y-113395000D02*
X144925238Y-113490238D01*
X144925238Y-113490238D02*
X144972857Y-113537857D01*
X144972857Y-113537857D02*
X145068095Y-113585476D01*
X145068095Y-113585476D02*
X145258571Y-113633095D01*
X145258571Y-113633095D02*
X145496666Y-113633095D01*
X145496666Y-113633095D02*
X145687142Y-113585476D01*
X145687142Y-113585476D02*
X145782380Y-113537857D01*
X145782380Y-113537857D02*
X145830000Y-113490238D01*
X145830000Y-113490238D02*
X145877619Y-113395000D01*
X145877619Y-113395000D02*
X145877619Y-113299762D01*
X145877619Y-113299762D02*
X145830000Y-113204524D01*
X145830000Y-113204524D02*
X145782380Y-113156905D01*
X145782380Y-113156905D02*
X145687142Y-113109286D01*
X145687142Y-113109286D02*
X145496666Y-113061667D01*
X145496666Y-113061667D02*
X145258571Y-113061667D01*
X145258571Y-113061667D02*
X145068095Y-113109286D01*
X145068095Y-113109286D02*
X144972857Y-113156905D01*
X144972857Y-113156905D02*
X144925238Y-113204524D01*
X144925238Y-113204524D02*
X144877619Y-113299762D01*
%TO.C,R2*%
X141797857Y-111156905D02*
X141750238Y-111204524D01*
X141750238Y-111204524D02*
X141702619Y-111299762D01*
X141702619Y-111299762D02*
X141702619Y-111537857D01*
X141702619Y-111537857D02*
X141750238Y-111633095D01*
X141750238Y-111633095D02*
X141797857Y-111680714D01*
X141797857Y-111680714D02*
X141893095Y-111728333D01*
X141893095Y-111728333D02*
X141988333Y-111728333D01*
X141988333Y-111728333D02*
X142131190Y-111680714D01*
X142131190Y-111680714D02*
X142702619Y-111109286D01*
X142702619Y-111109286D02*
X142702619Y-111728333D01*
X141702619Y-112347381D02*
X141702619Y-112442619D01*
X141702619Y-112442619D02*
X141750238Y-112537857D01*
X141750238Y-112537857D02*
X141797857Y-112585476D01*
X141797857Y-112585476D02*
X141893095Y-112633095D01*
X141893095Y-112633095D02*
X142083571Y-112680714D01*
X142083571Y-112680714D02*
X142321666Y-112680714D01*
X142321666Y-112680714D02*
X142512142Y-112633095D01*
X142512142Y-112633095D02*
X142607380Y-112585476D01*
X142607380Y-112585476D02*
X142655000Y-112537857D01*
X142655000Y-112537857D02*
X142702619Y-112442619D01*
X142702619Y-112442619D02*
X142702619Y-112347381D01*
X142702619Y-112347381D02*
X142655000Y-112252143D01*
X142655000Y-112252143D02*
X142607380Y-112204524D01*
X142607380Y-112204524D02*
X142512142Y-112156905D01*
X142512142Y-112156905D02*
X142321666Y-112109286D01*
X142321666Y-112109286D02*
X142083571Y-112109286D01*
X142083571Y-112109286D02*
X141893095Y-112156905D01*
X141893095Y-112156905D02*
X141797857Y-112204524D01*
X141797857Y-112204524D02*
X141750238Y-112252143D01*
X141750238Y-112252143D02*
X141702619Y-112347381D01*
X141702619Y-113299762D02*
X141702619Y-113395000D01*
X141702619Y-113395000D02*
X141750238Y-113490238D01*
X141750238Y-113490238D02*
X141797857Y-113537857D01*
X141797857Y-113537857D02*
X141893095Y-113585476D01*
X141893095Y-113585476D02*
X142083571Y-113633095D01*
X142083571Y-113633095D02*
X142321666Y-113633095D01*
X142321666Y-113633095D02*
X142512142Y-113585476D01*
X142512142Y-113585476D02*
X142607380Y-113537857D01*
X142607380Y-113537857D02*
X142655000Y-113490238D01*
X142655000Y-113490238D02*
X142702619Y-113395000D01*
X142702619Y-113395000D02*
X142702619Y-113299762D01*
X142702619Y-113299762D02*
X142655000Y-113204524D01*
X142655000Y-113204524D02*
X142607380Y-113156905D01*
X142607380Y-113156905D02*
X142512142Y-113109286D01*
X142512142Y-113109286D02*
X142321666Y-113061667D01*
X142321666Y-113061667D02*
X142083571Y-113061667D01*
X142083571Y-113061667D02*
X141893095Y-113109286D01*
X141893095Y-113109286D02*
X141797857Y-113156905D01*
X141797857Y-113156905D02*
X141750238Y-113204524D01*
X141750238Y-113204524D02*
X141702619Y-113299762D01*
%TO.C,R1*%
X137987857Y-111156905D02*
X137940238Y-111204524D01*
X137940238Y-111204524D02*
X137892619Y-111299762D01*
X137892619Y-111299762D02*
X137892619Y-111537857D01*
X137892619Y-111537857D02*
X137940238Y-111633095D01*
X137940238Y-111633095D02*
X137987857Y-111680714D01*
X137987857Y-111680714D02*
X138083095Y-111728333D01*
X138083095Y-111728333D02*
X138178333Y-111728333D01*
X138178333Y-111728333D02*
X138321190Y-111680714D01*
X138321190Y-111680714D02*
X138892619Y-111109286D01*
X138892619Y-111109286D02*
X138892619Y-111728333D01*
X137892619Y-112347381D02*
X137892619Y-112442619D01*
X137892619Y-112442619D02*
X137940238Y-112537857D01*
X137940238Y-112537857D02*
X137987857Y-112585476D01*
X137987857Y-112585476D02*
X138083095Y-112633095D01*
X138083095Y-112633095D02*
X138273571Y-112680714D01*
X138273571Y-112680714D02*
X138511666Y-112680714D01*
X138511666Y-112680714D02*
X138702142Y-112633095D01*
X138702142Y-112633095D02*
X138797380Y-112585476D01*
X138797380Y-112585476D02*
X138845000Y-112537857D01*
X138845000Y-112537857D02*
X138892619Y-112442619D01*
X138892619Y-112442619D02*
X138892619Y-112347381D01*
X138892619Y-112347381D02*
X138845000Y-112252143D01*
X138845000Y-112252143D02*
X138797380Y-112204524D01*
X138797380Y-112204524D02*
X138702142Y-112156905D01*
X138702142Y-112156905D02*
X138511666Y-112109286D01*
X138511666Y-112109286D02*
X138273571Y-112109286D01*
X138273571Y-112109286D02*
X138083095Y-112156905D01*
X138083095Y-112156905D02*
X137987857Y-112204524D01*
X137987857Y-112204524D02*
X137940238Y-112252143D01*
X137940238Y-112252143D02*
X137892619Y-112347381D01*
X137892619Y-113299762D02*
X137892619Y-113395000D01*
X137892619Y-113395000D02*
X137940238Y-113490238D01*
X137940238Y-113490238D02*
X137987857Y-113537857D01*
X137987857Y-113537857D02*
X138083095Y-113585476D01*
X138083095Y-113585476D02*
X138273571Y-113633095D01*
X138273571Y-113633095D02*
X138511666Y-113633095D01*
X138511666Y-113633095D02*
X138702142Y-113585476D01*
X138702142Y-113585476D02*
X138797380Y-113537857D01*
X138797380Y-113537857D02*
X138845000Y-113490238D01*
X138845000Y-113490238D02*
X138892619Y-113395000D01*
X138892619Y-113395000D02*
X138892619Y-113299762D01*
X138892619Y-113299762D02*
X138845000Y-113204524D01*
X138845000Y-113204524D02*
X138797380Y-113156905D01*
X138797380Y-113156905D02*
X138702142Y-113109286D01*
X138702142Y-113109286D02*
X138511666Y-113061667D01*
X138511666Y-113061667D02*
X138273571Y-113061667D01*
X138273571Y-113061667D02*
X138083095Y-113109286D01*
X138083095Y-113109286D02*
X137987857Y-113156905D01*
X137987857Y-113156905D02*
X137940238Y-113204524D01*
X137940238Y-113204524D02*
X137892619Y-113299762D01*
%TO.C,D3*%
X155043094Y-107777619D02*
X155043094Y-106777619D01*
X155043094Y-106777619D02*
X154804999Y-106777619D01*
X154804999Y-106777619D02*
X154662142Y-106825238D01*
X154662142Y-106825238D02*
X154566904Y-106920476D01*
X154566904Y-106920476D02*
X154519285Y-107015714D01*
X154519285Y-107015714D02*
X154471666Y-107206190D01*
X154471666Y-107206190D02*
X154471666Y-107349047D01*
X154471666Y-107349047D02*
X154519285Y-107539523D01*
X154519285Y-107539523D02*
X154566904Y-107634761D01*
X154566904Y-107634761D02*
X154662142Y-107730000D01*
X154662142Y-107730000D02*
X154804999Y-107777619D01*
X154804999Y-107777619D02*
X155043094Y-107777619D01*
X154138332Y-106777619D02*
X153519285Y-106777619D01*
X153519285Y-106777619D02*
X153852618Y-107158571D01*
X153852618Y-107158571D02*
X153709761Y-107158571D01*
X153709761Y-107158571D02*
X153614523Y-107206190D01*
X153614523Y-107206190D02*
X153566904Y-107253809D01*
X153566904Y-107253809D02*
X153519285Y-107349047D01*
X153519285Y-107349047D02*
X153519285Y-107587142D01*
X153519285Y-107587142D02*
X153566904Y-107682380D01*
X153566904Y-107682380D02*
X153614523Y-107730000D01*
X153614523Y-107730000D02*
X153709761Y-107777619D01*
X153709761Y-107777619D02*
X153995475Y-107777619D01*
X153995475Y-107777619D02*
X154090713Y-107730000D01*
X154090713Y-107730000D02*
X154138332Y-107682380D01*
%TO.C,Q1*%
X157575238Y-114222857D02*
X157670476Y-114175238D01*
X157670476Y-114175238D02*
X157765714Y-114080000D01*
X157765714Y-114080000D02*
X157908571Y-113937142D01*
X157908571Y-113937142D02*
X158003809Y-113889523D01*
X158003809Y-113889523D02*
X158099047Y-113889523D01*
X158051428Y-114127619D02*
X158146666Y-114080000D01*
X158146666Y-114080000D02*
X158241904Y-113984761D01*
X158241904Y-113984761D02*
X158289523Y-113794285D01*
X158289523Y-113794285D02*
X158289523Y-113460952D01*
X158289523Y-113460952D02*
X158241904Y-113270476D01*
X158241904Y-113270476D02*
X158146666Y-113175238D01*
X158146666Y-113175238D02*
X158051428Y-113127619D01*
X158051428Y-113127619D02*
X157860952Y-113127619D01*
X157860952Y-113127619D02*
X157765714Y-113175238D01*
X157765714Y-113175238D02*
X157670476Y-113270476D01*
X157670476Y-113270476D02*
X157622857Y-113460952D01*
X157622857Y-113460952D02*
X157622857Y-113794285D01*
X157622857Y-113794285D02*
X157670476Y-113984761D01*
X157670476Y-113984761D02*
X157765714Y-114080000D01*
X157765714Y-114080000D02*
X157860952Y-114127619D01*
X157860952Y-114127619D02*
X158051428Y-114127619D01*
X156670476Y-114127619D02*
X157241904Y-114127619D01*
X156956190Y-114127619D02*
X156956190Y-113127619D01*
X156956190Y-113127619D02*
X157051428Y-113270476D01*
X157051428Y-113270476D02*
X157146666Y-113365714D01*
X157146666Y-113365714D02*
X157241904Y-113413333D01*
%TO.C,D1*%
X139803094Y-107777619D02*
X139803094Y-106777619D01*
X139803094Y-106777619D02*
X139564999Y-106777619D01*
X139564999Y-106777619D02*
X139422142Y-106825238D01*
X139422142Y-106825238D02*
X139326904Y-106920476D01*
X139326904Y-106920476D02*
X139279285Y-107015714D01*
X139279285Y-107015714D02*
X139231666Y-107206190D01*
X139231666Y-107206190D02*
X139231666Y-107349047D01*
X139231666Y-107349047D02*
X139279285Y-107539523D01*
X139279285Y-107539523D02*
X139326904Y-107634761D01*
X139326904Y-107634761D02*
X139422142Y-107730000D01*
X139422142Y-107730000D02*
X139564999Y-107777619D01*
X139564999Y-107777619D02*
X139803094Y-107777619D01*
X138279285Y-107777619D02*
X138850713Y-107777619D01*
X138564999Y-107777619D02*
X138564999Y-106777619D01*
X138564999Y-106777619D02*
X138660237Y-106920476D01*
X138660237Y-106920476D02*
X138755475Y-107015714D01*
X138755475Y-107015714D02*
X138850713Y-107063333D01*
%TO.C,D2*%
X147423094Y-107777619D02*
X147423094Y-106777619D01*
X147423094Y-106777619D02*
X147184999Y-106777619D01*
X147184999Y-106777619D02*
X147042142Y-106825238D01*
X147042142Y-106825238D02*
X146946904Y-106920476D01*
X146946904Y-106920476D02*
X146899285Y-107015714D01*
X146899285Y-107015714D02*
X146851666Y-107206190D01*
X146851666Y-107206190D02*
X146851666Y-107349047D01*
X146851666Y-107349047D02*
X146899285Y-107539523D01*
X146899285Y-107539523D02*
X146946904Y-107634761D01*
X146946904Y-107634761D02*
X147042142Y-107730000D01*
X147042142Y-107730000D02*
X147184999Y-107777619D01*
X147184999Y-107777619D02*
X147423094Y-107777619D01*
X146470713Y-106872857D02*
X146423094Y-106825238D01*
X146423094Y-106825238D02*
X146327856Y-106777619D01*
X146327856Y-106777619D02*
X146089761Y-106777619D01*
X146089761Y-106777619D02*
X145994523Y-106825238D01*
X145994523Y-106825238D02*
X145946904Y-106872857D01*
X145946904Y-106872857D02*
X145899285Y-106968095D01*
X145899285Y-106968095D02*
X145899285Y-107063333D01*
X145899285Y-107063333D02*
X145946904Y-107206190D01*
X145946904Y-107206190D02*
X146518332Y-107777619D01*
X146518332Y-107777619D02*
X145899285Y-107777619D01*
%TD*%
M02*
